<svg xmlns="http://www.w3.org/2000/svg" width="62.5" height="65.233" viewBox="0 0 62.5 65.233">
  <path id="Vridhee_Logo" data-name="Vridhee Logo" d="M2.3,21.662a29.452,29.452,0,0,1,2.328-4.681,33.751,33.751,0,0,1,10.4-10.775c9.66-6.44,22.416-8.446,32.794-3.245A30.382,30.382,0,0,1,60.065,13.439a11.451,11.451,0,0,1,1.982,3.294c-7.455-3.963-9.957-5.6-18.3-7.48-1.461-.347-2.848-.223-4.557-.5a25.619,25.619,0,0,0-9.016.991A26.359,26.359,0,0,0,13.623,23.99c-3.492,7.48-1.61,17.958,4.236,23.8C23.8,53.738,31.7,55.472,39.952,52.747a16.074,16.074,0,0,0,5.1-2.972c4.211-4.087,5.4-7.183,5.4-13.177,0-11.468-14.738-14.341-20.534-5.672,1.214-.3,1.808-.867,3.492-.867,7.6,0,9.784,9.189,5.325,13.821a8.372,8.372,0,0,1-5.746,2.551c-4.409,0-6.366-.817-9.462-3.864C19.444,38.5,19.617,30.7,21.995,25.823a13.873,13.873,0,0,1,1.684-2.9,17.2,17.2,0,0,1,7.8-5.746,24.3,24.3,0,0,1,17.091.57,22.038,22.038,0,0,1,6.861,4.26l2.774,2.923c7.01,9.338,5.053,23.258-3.1,31.382a26.952,26.952,0,0,1-5.028,3.938,30.944,30.944,0,0,1-6.044,2.923C26.7,69.07,7.505,62.209,1.56,43.781A39.578,39.578,0,0,1,0,33.551,32.243,32.243,0,0,1,2.3,21.662Z" fill="#004392" fill-rule="evenodd"/>
</svg>
